<?xml version="1.0" encoding="utf-8"?>
<!-- Generator: Adobe Illustrator 16.0.3, SVG Export Plug-In . SVG Version: 6.00 Build 0)  -->
<!DOCTYPE svg PUBLIC "-//W3C//DTD SVG 1.1//EN" "http://www.w3.org/Graphics/SVG/1.1/DTD/svg11.dtd">
<svg version="1.1" id="圖層_1" xmlns="http://www.w3.org/2000/svg" xmlns:xlink="http://www.w3.org/1999/xlink" x="0px" y="0px"
	 width="1024px" height="1024px" viewBox="0 0 1024 1024" enable-background="new 0 0 1024 1024" xml:space="preserve">
<rect fill="#2E58A6" stroke="#FCFCFC" stroke-width="70" stroke-miterlimit="10" width="1024" height="1024"/>
<g>
	<path fill-rule="evenodd" clip-rule="evenodd" fill="#FFFFFF" d="M131.044,337.887c0-2.965,0-5.954,0-8.941
		c0.39-0.598,0.943-1.173,1.161-1.816c7.068-22.272,26.501-30.857,47.474-20.766c7.16,3.39,14.135,7.181,21.159,10.767
		c8.826,4.528,9.159,4.528,8.732-5.654c-1.63-36.626,8.86-69.436,31.053-98.466c29.915-39.211,71.103-60.472,117.565-73.159
		c17.262-4.701,35.039-6.091,52.624-8.815c12.411,0,24.764,0,37.177,0c2.734,1.482,5.77,1.207,8.744,1.482
		c52.015,5.563,99.214,22.916,138.62,58.243c25.157,22.526,42.741,49.831,49.706,83.41c4.124,19.618,2.71,39.465,2.825,59.232
		c0,6.044,1.219,7.54,7.379,5.814c27.133-7.538,54.369-14.938,82.215-19.87c40.097-7.137,78.918,23.917,63.575,69.598
		c-10.813,32.12-20.33,64.667-31.881,96.546c-2.146,5.793-0.951,7.091,5.059,7.032c25.752-0.274,51.576,0.45,77.285-0.298
		c20.696-0.575,34.879,7.08,41.44,27.201c0,4.483,0,8.932,0,13.401c-2.551,5.115-1.114,10.723-1.954,16.055
		c-9.411,58.564-39.36,105.201-83.628,143.124c-52.336,44.877-113.59,70.471-181.118,82.055
		c-15.01,2.621-14.998,2.505-15.078,17.354c-0.206,46.256,3.229,36.638-26.605,73.264c-10.216,12.515-20.858,23.686-36.843,28.283
		c-4.505,0-8.918,0-13.401,0c-0.287-0.37-0.572-0.896-0.986-1.035c-26.076-10.861-31.595-34.74-12.896-55.852
		c6.724-7.609,13.353-15.297,20.101-22.871c1.736-1.907,3.046-3.723,3.021-6.471c-0.148-7.18-0.171-14.363,0-21.547
		c0.025-3.356-0.986-5.058-4.585-5.079c-17.858-0.185-35.567-2.023-53.172-4.645c-3.565-0.529-4.919,0.668-4.897,4.333
		c0.195,8.425-0.632,16.905,0.195,25.226c1.964,19.033-3.253,35.052-17.25,48.305c-4.653,4.424-8.631,9.594-12.377,14.788
		c-9.171,12.597-20.387,22.066-36.2,24.848c-0.506,0-1.001,0-1.518,0c-1.148-0.37-2.298-0.908-3.493-1.035
		c-13.331-1.494-23.674-7.239-28.571-20.33c-5.033-13.285-1.241-24.64,8.07-34.787c6.642-7.311,12.939-15.01,19.695-22.296
		c3.036-3.285,4.471-6.663,4.38-11.261c-0.345-11.906-0.666-23.813,0.081-35.696c0.448-7.4-2.024-10.549-9.021-13.077
		c-55.462-20.249-104.03-50.773-141.7-96.971c-32.179-39.397-50.326-84.194-50.568-135.701c-0.159-29.513-1.045-58.99-1.379-88.468
		c-0.068-4.919-0.93-6.182-5.733-3.608c-9.609,5.148-19.215,10.354-29.259,14.503c-15.32,6.264-32.351,0.597-40.257-12.952
		c-2.275-3.988-3.333-8.665-4.965-13.044c0-1.48,0-2.964,0-4.458c3.803-24.467,26.604-28.385,43.82-39.396
		c-7.298-3.769-13.504-7.332-20.02-10.205C142.938,358.917,134.135,351.056,131.044,337.887z M821.314,555.537
		c-1.403-0.172-2.32-0.402-3.275-0.402c-24.283-0.528-48.611,1.288-72.813-1.607c-3.84-0.461-5.323,1.424-6.677,4.309
		c-6.163,13.009-12.886,25.72-20.722,37.763c-8.391,12.86-16.525,26.226-29.479,35.11c-22.972,15.744-47.75,27.914-74.723,35.648
		c-79.869,22.974-165.165-14.963-200.62-90.03c-15.514-32.868-17.962-66.851-3.481-100.81c16.204-38.05,43.108-65.874,81.285-82.676
		c27.212-11.987,55.163-21.938,83.421-31.063c2.541-0.815,6.312-0.437,6.218-4.874c-0.575-22.513,2.035-45.21-1.322-67.574
		c-4.401-29.249-22.215-50.371-46.555-64.989c-66.953-40.143-136-41.257-204.285-4.447c-35.511,19.134-54.519,49.934-53.325,92.478
		c2.035,70.883,2.309,141.825,3.344,212.687c0.46,30.926,10.238,58.875,27.766,84.065c30.533,43.785,73.321,71.091,122.657,88.675
		c69.551,24.776,140.573,27.765,212.193,10.295c56.563-13.79,106.738-39.417,145.249-84.489
		C803.135,603.794,815.316,581.338,821.314,555.537z M730.858,385.223c-19.801,4.815-38.074,9.044-56.289,13.688
		c-49.588,12.733-99.132,25.765-146.443,45.842c-15.113,6.378-29.249,14.055-40.156,27.179
		c-28.764,34.545-28.35,76.952,4.978,107.119c33.442,30.26,73.319,37.178,116.38,22.605c23.939-8.091,42.327-22.365,54.291-45.371
		C691.798,502.041,711.207,444.408,730.858,385.223z"/>
	<path fill-rule="evenodd" clip-rule="evenodd" fill="#FFFFFF" d="M386.333,339.84c18.422,0.022,33.075-11.516,34.97-27.605
		c2.277-19.009-11.01-35.121-30.223-36.729c-21.63-1.817-39.039,11.492-39.845,30.512C350.43,325.222,365.567,339.84,386.333,339.84
		z"/>
	<path fill-rule="evenodd" clip-rule="evenodd" fill="#FFFFFF" d="M386.333,339.84c-20.766,0-35.903-14.619-35.098-33.822
		c0.806-19.02,18.215-32.329,39.845-30.512c19.213,1.608,32.5,17.72,30.223,36.729C419.408,328.324,404.755,339.862,386.333,339.84z
		"/>
</g>
</svg>
