<?xml version="1.0" encoding="utf-8"?>
<!-- Generator: Adobe Illustrator 16.0.3, SVG Export Plug-In . SVG Version: 6.00 Build 0)  -->
<!DOCTYPE svg PUBLIC "-//W3C//DTD SVG 1.1//EN" "http://www.w3.org/Graphics/SVG/1.1/DTD/svg11.dtd">
<svg version="1.1" id="圖層_1" xmlns="http://www.w3.org/2000/svg" xmlns:xlink="http://www.w3.org/1999/xlink" x="0px" y="0px"
	 width="512px" height="512px" viewBox="0 0 512 512" enable-background="new 0 0 512 512" xml:space="preserve">
<path fill="none" stroke="#F9F9F9" stroke-width="15" stroke-miterlimit="10" d="M501.714,255.992
	c0,134.741-110.021,243.999-245.728,243.999c-135.703,0-245.699-109.258-245.699-243.999c0-134.754,109.996-243.982,245.699-243.982
	C391.692,12.009,501.714,121.238,501.714,255.992z"/>
<path fill-rule="evenodd" clip-rule="evenodd" fill="#F0F499" stroke="#FFFFFF" stroke-width="8" stroke-miterlimit="10" d="
	M435.792,212.861c0,4.182,0,8.352,0,12.541c-3.501,4.354-6.885,8.804-10.543,13.045c-24.172,28.075-48.356,56.151-72.515,84.194
	c-27.573,31.969-55.078,63.934-82.608,95.865c-9.623,11.123-19.881,11.174-29.686,0.318c-0.789-0.859-1.54-1.754-2.262-2.637
	c-30.568-35.822-61.136-71.611-91.625-107.48c-23.513-27.695-46.897-55.518-70.346-83.305c0-4.188,0-8.358,0-12.541
	c17.622-27.415,35.464-54.681,52.788-82.241c5.259-8.396,11.836-11.926,21.9-11.894c74.595,0.275,149.245,0.308,223.826-0.026
	c11.717-0.049,18.59,4.337,23.386,14.787C410.278,160.105,423.196,186.415,435.792,212.861z"/>
<rect x="-363" y="-180" fill="none" stroke="#F9F9F9" stroke-width="15" stroke-miterlimit="10" width="210" height="167"/>
</svg>
