<?xml version="1.0" encoding="UTF-8" standalone="no"?>
<!-- Generator: Adobe Illustrator 16.0.3, SVG Export Plug-In . SVG Version: 6.00 Build 0)  -->

<svg
   xmlns:dc="http://purl.org/dc/elements/1.1/"
   xmlns:cc="http://creativecommons.org/ns#"
   xmlns:rdf="http://www.w3.org/1999/02/22-rdf-syntax-ns#"
   xmlns:svg="http://www.w3.org/2000/svg"
   xmlns="http://www.w3.org/2000/svg"
   xmlns:sodipodi="http://sodipodi.sourceforge.net/DTD/sodipodi-0.dtd"
   xmlns:inkscape="http://www.inkscape.org/namespaces/inkscape"
   version="1.1"
   x="0px"
   y="0px"
   width="512px"
   height="512px"
   viewBox="0 0 512 512"
   style="enable-background:new 0 0 512 512;"
   xml:space="preserve"
   id="svg16"
   sodipodi:docname="chick (icon ready round).svg"
   inkscape:version="0.92.2 2405546, 2018-03-11"><metadata
   id="metadata22"><rdf:RDF><cc:Work
       rdf:about=""><dc:format>image/svg+xml</dc:format><dc:type
         rdf:resource="http://purl.org/dc/dcmitype/StillImage" /><dc:title></dc:title></cc:Work></rdf:RDF></metadata><defs
   id="defs20" /><sodipodi:namedview
   pagecolor="#ffffff"
   bordercolor="#666666"
   borderopacity="1"
   objecttolerance="10"
   gridtolerance="10"
   guidetolerance="10"
   inkscape:pageopacity="0"
   inkscape:pageshadow="2"
   inkscape:window-width="1920"
   inkscape:window-height="1026"
   id="namedview18"
   showgrid="false"
   inkscape:zoom="1.3037281"
   inkscape:cx="351.34218"
   inkscape:cy="212.12256"
   inkscape:window-x="0"
   inkscape:window-y="28"
   inkscape:window-maximized="1"
   inkscape:current-layer="layer2" />
<g
   id="圖層_1"
   style="display:none;">
	<rect
   x="-0.5"
   y="0.5"
   style="display:inline;fill:#3931FF;stroke:#000000;stroke-miterlimit:10;"
   width="512"
   height="512"
   id="rect2" />
</g>

<g
   inkscape:groupmode="layer"
   id="layer2"
   inkscape:label="background"><g
     id="g829"
     transform="matrix(0.87566137,0,0,0.87566137,56.129225,22.499404)"><circle
       r="289.93774"
       cy="267.31708"
       cx="229.34229"
       id="path825"
       style="fill:#7fcde2;fill-opacity:0.89803922" /></g></g><g
   inkscape:groupmode="layer"
   id="layer1"
   inkscape:label="icon"><g
     id="圖層_2"
     transform="matrix(0.87566137,0,0,0.87566137,30.869818,31.494633)">
	<path
   style="fill:none;stroke:#f9f9f9;stroke-width:14;stroke-miterlimit:10"
   d="m 492.704,255.994 c 0,133.634 -105.981,242.027 -236.716,242.027 -130.722,0 -236.692,-108.393 -236.692,-242.027 0,-133.668 105.97,-242.014 236.692,-242.014 130.735,-0.001 236.716,108.345 236.716,242.014 z"
   id="path5"
   inkscape:connector-curvature="0" />
	<g
   id="g13">
		<path
   style="clip-rule:evenodd;fill:#ffffff;fill-rule:evenodd"
   d="m 74.854,172.819 c 0,-1.47 0,-2.928 0,-4.41 0.193,-0.295 0.448,-0.57 0.559,-0.9 3.413,-10.989 12.783,-15.21 22.913,-10.238 3.437,1.678 6.803,3.537 10.205,5.321 4.25,2.224 4.409,2.217 4.198,-2.791 -0.79,-18.067 4.279,-34.251 14.979,-48.573 14.439,-19.343 34.308,-29.829 56.722,-36.081 8.329,-2.322 16.917,-3.013 25.393,-4.352 5.98,0 11.96,0 17.94,0 1.325,0.747 2.783,0.6 4.213,0.747 25.099,2.733 47.853,11.29 66.858,28.712 12.148,11.103 20.624,24.572 23.984,41.146 1.983,9.681 1.319,19.455 1.355,29.209 0.017,2.995 0.592,3.722 3.561,2.873 13.101,-3.73 26.238,-7.381 39.665,-9.814 19.352,-3.513 38.075,11.798 30.682,34.338 -5.221,15.835 -9.812,31.89 -15.397,47.603 -1.029,2.872 -0.451,3.502 2.443,3.486 12.431,-0.134 24.878,0.208 37.298,-0.149 9.972,-0.295 16.824,3.49 19.981,13.411 0,2.219 0,4.404 0,6.613 -1.229,2.516 -0.538,5.286 -0.939,7.929 -4.533,28.858 -18.971,51.87 -40.349,70.598 -25.245,22.115 -54.791,34.734 -87.359,40.465 -7.243,1.274 -7.243,1.219 -7.28,8.532 -0.104,22.819 1.555,18.071 -12.848,36.143 -4.915,6.188 -10.046,11.693 -17.764,13.949 -2.165,0 -4.297,0 -6.469,0 -0.142,-0.169 -0.271,-0.429 -0.472,-0.5 -12.577,-5.337 -15.249,-17.127 -6.215,-27.551 3.236,-3.751 6.434,-7.534 9.688,-11.288 0.849,-0.919 1.485,-1.83 1.46,-3.194 -0.069,-3.525 -0.089,-7.079 0,-10.604 0.025,-1.643 -0.464,-2.5 -2.2,-2.516 -8.625,-0.091 -17.171,-0.998 -25.663,-2.308 -1.713,-0.24 -2.384,0.351 -2.365,2.162 0.105,4.136 -0.29,8.327 0.105,12.431 0.941,9.39 -1.572,17.278 -8.329,23.837 -2.243,2.161 -4.154,4.725 -5.98,7.279 -4.409,6.226 -9.83,10.878 -17.457,12.251 -0.235,0 -0.473,0 -0.724,0 -0.559,-0.169 -1.118,-0.429 -1.696,-0.5 -6.414,-0.724 -11.407,-3.568 -13.778,-10.014 -2.415,-6.56 -0.589,-12.176 3.889,-17.181 3.22,-3.607 6.258,-7.395 9.508,-10.976 1.465,-1.644 2.154,-3.295 2.094,-5.561 -0.142,-5.861 -0.305,-11.753 0.06,-17.593 0.211,-3.655 -0.978,-5.227 -4.356,-6.483 -26.746,-9.96 -50.196,-25.049 -68.363,-47.819 -15.503,-19.431 -24.27,-41.519 -24.397,-66.929 -0.054,-14.548 -0.489,-29.091 -0.661,-43.629 -0.022,-2.421 -0.44,-3.058 -2.761,-1.792 -4.636,2.547 -9.269,5.117 -14.114,7.157 -7.392,3.098 -15.615,0.307 -19.417,-6.382 -1.1,-1.958 -1.607,-4.276 -2.4,-6.43 0,-0.739 0,-1.466 0,-2.197 1.829,-12.062 12.824,-14.011 21.142,-19.436 -3.525,-1.846 -6.517,-3.604 -9.66,-5.039 -5.739,-2.598 -9.993,-6.47 -11.482,-12.962 z m 333.004,107.354 c -0.671,-0.079 -1.118,-0.189 -1.589,-0.189 -11.713,-0.259 -23.438,0.625 -35.132,-0.813 -1.843,-0.221 -2.566,0.707 -3.214,2.146 -2.967,6.405 -6.216,12.671 -9.995,18.605 -4.049,6.355 -7.97,12.949 -14.219,17.317 -11.079,7.769 -23.045,13.774 -36.053,17.599 -38.528,11.318 -79.676,-7.392 -96.787,-44.423 -7.482,-16.201 -8.658,-32.971 -1.665,-49.722 7.809,-18.767 20.801,-32.467 39.199,-40.764 13.139,-5.911 26.618,-10.824 40.259,-15.324 1.213,-0.401 3.037,-0.213 2.979,-2.393 -0.271,-11.123 0.992,-22.316 -0.63,-33.349 -2.114,-14.412 -10.718,-24.837 -22.461,-32.039 -32.296,-19.804 -65.598,-20.359 -98.542,-2.197 -17.127,9.432 -26.31,24.63 -25.732,45.614 0.982,34.958 1.124,69.942 1.624,104.908 0.218,15.241 4.926,29.025 13.39,41.456 14.732,21.598 35.369,35.066 59.166,43.731 33.562,12.239 67.822,13.698 102.373,5.086 27.288,-6.804 51.482,-19.45 70.077,-41.688 8.172,-9.768 14.045,-20.836 16.952,-33.561 z M 364.215,196.16 c -9.559,2.374 -18.376,4.473 -27.158,6.764 -23.924,6.273 -47.815,12.71 -70.635,22.595 -7.306,3.16 -14.115,6.937 -19.376,13.406 -13.88,17.049 -13.68,37.953 2.389,52.85 16.133,14.904 35.379,18.334 56.164,11.15 11.528,-4.001 20.399,-11.025 26.18,-22.388 13.589,-26.748 22.952,-55.183 32.436,-84.377 z"
   id="path7"
   inkscape:connector-curvature="0" />
		<path
   style="clip-rule:evenodd;fill:#ffffff;fill-rule:evenodd"
   d="m 198.003,173.786 c 8.888,0.02 15.974,-5.688 16.875,-13.615 1.107,-9.365 -5.309,-17.313 -14.58,-18.126 -10.437,-0.896 -18.829,5.691 -19.217,15.057 -0.388,9.46 6.911,16.668 16.922,16.684 z"
   id="path9"
   inkscape:connector-curvature="0" />
		<path
   style="clip-rule:evenodd;fill:#ffffff;fill-rule:evenodd"
   d="m 198.003,173.786 c -10.011,-0.016 -17.311,-7.224 -16.921,-16.684 0.388,-9.366 8.78,-15.953 19.217,-15.057 9.271,0.813 15.687,8.761 14.58,18.126 -0.901,7.927 -7.988,13.634 -16.876,13.615 z"
   id="path11"
   inkscape:connector-curvature="0" />
	</g>
</g></g></svg>